HIERARCHY
ROOT Hips
{
	OFFSET 52.162701 13.533191 56.669403
	CHANNELS 6 Xposition Yposition Zposition Xrotation Yrotation Zrotation
	JOINT spine
	{
		OFFSET 0.000000 -0.458068 7.965675
		CHANNELS 3 Xrotation Yrotation Zrotation
		JOINT spine1
		{
			OFFSET 0.000000 -0.000002 10.243103
			CHANNELS 3 Xrotation Yrotation Zrotation
			JOINT spine2
			{
				OFFSET 0.000000 -0.000001 9.814751
				CHANNELS 3 Xrotation Yrotation Zrotation
				JOINT Neck
				{
					OFFSET 0.000000 -1.201385 25.198601
					CHANNELS 3 Xrotation Yrotation Zrotation
					JOINT Head
					{
						OFFSET 0.000000 -0.000001 7.613152
						CHANNELS 3 Xrotation Yrotation Zrotation
						End Site
						{
							OFFSET 0.000000 6.077327 18.428101
						}
					}
				}
				JOINT RightShoulder
				{
					OFFSET -4.132702 0.575449 10.599197
					CHANNELS 3 Xrotation Yrotation Zrotation
					JOINT RightArm
					{
						OFFSET 0.000000 -0.000003 13.901802
						CHANNELS 3 Xrotation Yrotation Zrotation
						JOINT RightArmRoll
						{
							OFFSET 0.000000 -0.000001 7.017891
							CHANNELS 3 Xrotation Yrotation Zrotation
							JOINT RightForeArm
							{
								OFFSET 0.000000 -0.000003 20.440598
								CHANNELS 3 Xrotation Yrotation Zrotation
								JOINT RightForeArmRoll
								{
									OFFSET 0.000000 -0.000002 7.875168
									CHANNELS 3 Xrotation Yrotation Zrotation
									JOINT RightHand
									{
										OFFSET 0.000000 -0.000002 15.803696
										CHANNELS 3 Xrotation Yrotation Zrotation
										End Site
										{
											OFFSET 0.000000 0.000000 0.100006
										}
									}
								}
							}
						}
					}
				}
				JOINT LeftShoulder
				{
					OFFSET 4.132702 0.575449 10.599197
					CHANNELS 3 Xrotation Yrotation Zrotation
					JOINT LeftArm
					{
						OFFSET 0.000000 -0.000003 13.901802
						CHANNELS 3 Xrotation Yrotation Zrotation
						JOINT LeftArmRoll
						{
							OFFSET 0.000000 -0.000001 7.017891
							CHANNELS 3 Xrotation Yrotation Zrotation
							JOINT LeftForeArm
							{
								OFFSET 0.000000 -0.000003 20.440598
								CHANNELS 3 Xrotation Yrotation Zrotation
								JOINT LeftForeArmRoll
								{
									OFFSET 0.000000 -0.000002 7.875153
									CHANNELS 3 Xrotation Yrotation Zrotation
									JOINT LeftHand
									{
										OFFSET 0.000000 -0.000002 15.803696
										CHANNELS 3 Xrotation Yrotation Zrotation
										End Site
										{
											OFFSET 0.000000 0.000000 0.100006
										}
									}
								}
							}
						}
					}
				}
			}
		}
	}
	JOINT RightUpLeg
	{
		OFFSET -7.060482 1.086091 -1.294701
		CHANNELS 3 Xrotation Yrotation Zrotation
		JOINT RightUpLegRoll
		{
			OFFSET 0.000000 -0.000004 18.530800
			CHANNELS 3 Xrotation Yrotation Zrotation
			JOINT RightLeg
			{
				OFFSET 0.000000 0.000004 -22.947598
				CHANNELS 3 Xrotation Yrotation Zrotation
				JOINT RightLegRoll
				{
					OFFSET 0.000000 -0.000004 23.022594
					CHANNELS 3 Xrotation Yrotation Zrotation
					JOINT RightFoot
					{
						OFFSET 0.000000 -0.000003 19.162498
						CHANNELS 3 Xrotation Yrotation Zrotation
						JOINT RightToeBase
						{
							OFFSET 0.000000 -0.000003 16.018799
							CHANNELS 3 Xrotation Yrotation Zrotation
							End Site
							{
								OFFSET 0.006790 0.894206 7.757820
							}
						}
					}
				}
			}
		}
	}
	JOINT LeftUpLeg
	{
		OFFSET 7.060482 1.086091 -1.294701
		CHANNELS 3 Xrotation Yrotation Zrotation
		JOINT LeftUpLegRoll
		{
			OFFSET 0.000000 -0.000004 18.530891
			CHANNELS 3 Xrotation Yrotation Zrotation
			JOINT LeftLeg
			{
				OFFSET 0.000000 -0.000004 22.947502
				CHANNELS 3 Xrotation Yrotation Zrotation
				JOINT LeftLegRoll
				{
					OFFSET 0.000000 -0.000004 23.235497
					CHANNELS 3 Xrotation Yrotation Zrotation
					JOINT LeftFoot
					{
						OFFSET 0.000000 -0.000003 18.949600
						CHANNELS 3 Xrotation Yrotation Zrotation
						JOINT LeftToeBase
						{
							OFFSET 0.000000 -0.000002 16.018799
							CHANNELS 3 Xrotation Yrotation Zrotation
							End Site
							{
								OFFSET -0.030430 0.894204 7.757828
							}
						}
					}
				}
			}
		}
	}
}
MOTION
Frames: 6
Frame Time: 0.041667
52.754196 10.915090 57.578602 1.251610 -4.237763 6.788794 1.961085 0.723706 -0.091354 7.926908 1.439202 -0.215163 9.572204 1.436516 -0.232394 31.613647 -7.873156 -2.986864 0.654988 4.887463 -4.469685 -7.862941 -66.261994 -9.801490 -64.859579 -126.993584 -76.246228 -0.000002 0.000000 -0.000021 53.764859 -11.266588 3.234744 -0.000006 0.000005 -3.008280 -5.000160 -7.999596 0.000058 8.399495 62.400697 -9.167146 -68.983736 128.827818 83.878138 0.000001 0.000002 -0.000001 52.773733 15.395853 -5.016464 -0.000005 -0.000019 3.006932 -5.000179 7.999900 -0.000037 -87.816050 -168.939197 -3.688518 -179.999991 0.000006 -0.940006 97.600780 5.478849 0.547790 -0.000002 0.000002 1.529310 64.394101 5.067577 6.627813 25.458876 -7.355617 0.002973 -85.460147 181.132614 -1.940403 -0.000005 -0.000004 -1.261740 -80.218086 -1.672507 1.482728 -0.000007 -0.000003 -1.595790 63.419229 -5.483429 -5.653290 25.456948 7.355612 0.000000 
52.743893 10.928591 57.552605 1.092874 -4.228154 6.777317 1.949485 0.718998 -0.091663 7.903659 1.430933 -0.215115 9.548962 1.428261 -0.232249 31.546117 -7.782466 -2.995651 0.621610 4.828080 -4.455071 -7.800889 -66.273694 -9.731954 -64.906454 -127.099589 -76.207344 -0.000003 0.000000 -0.000021 53.437662 -11.358946 3.258842 -0.000003 0.000004 -3.008282 -5.000162 -7.999594 0.000055 8.388109 62.509550 -9.135790 -69.021234 128.950679 83.762790 0.000001 -0.000001 0.000001 52.412857 15.465399 -5.022559 -0.000004 -0.000020 3.006927 -5.000175 7.999903 -0.000036 -87.678626 -168.957993 -3.666384 -179.999991 0.000005 -0.943995 97.570728 5.488980 0.558563 -0.000002 0.000003 1.531209 64.401683 5.073243 6.615050 25.458878 -7.355616 0.002972 -85.334061 181.126153 -1.925015 -0.000004 -0.000004 -1.263990 -80.241670 -1.690015 1.466816 -0.000007 -0.000002 -1.596550 63.407576 -5.482954 -5.654766 25.456948 7.355611 0.000000 
52.743301 10.921591 57.533901 0.935082 -4.218451 6.765573 1.938013 0.714441 -0.091804 7.880716 1.422790 -0.214800 9.526011 1.420112 -0.231835 31.474471 -7.691797 -3.004250 0.594681 4.765955 -4.440061 -7.736020 -66.285613 -9.659266 -64.951636 -127.202301 -76.163064 -0.000003 0.000000 -0.000019 53.114338 -11.447678 3.280631 -0.000004 0.000004 -3.008281 -5.000158 -7.999590 0.000059 8.376328 62.617030 -9.104249 -69.055419 129.072981 83.644477 0.000001 -0.000000 -0.000003 52.054231 15.531961 -5.026525 -0.000007 -0.000019 3.006929 -5.000177 7.999902 -0.000033 -87.541975 -168.976694 -3.644275 -179.999991 0.000005 -0.947001 97.542949 5.498424 0.568264 -0.000002 0.000003 1.533270 64.409818 5.078582 6.603185 25.458878 -7.355617 0.002973 -85.208290 181.119364 -1.909859 -0.000005 -0.000004 -1.266220 -80.264319 -1.707712 1.451059 -0.000007 -0.000002 -1.597220 63.392734 -5.482383 -5.656081 25.456950 7.355613 -0.000000 
52.737797 10.940187 57.518204 0.778259 -4.208614 6.753519 1.926709 0.710067 -0.091748 7.858091 1.414765 -0.214166 9.503382 1.412099 -0.231105 31.398619 -7.601435 -3.012538 0.574894 4.701045 -4.424617 -7.668351 -66.297730 -9.583432 -64.995056 -127.301653 -76.112835 -0.000002 -0.000000 -0.000022 52.795501 -11.532327 3.299879 -0.000003 0.000005 -3.008281 -5.000162 -7.999592 0.000057 8.363887 62.722618 -9.072298 -69.087227 129.194080 83.524819 0.000001 0.000000 -0.000001 51.698269 15.595424 -5.028407 -0.000006 -0.000017 3.006930 -5.000174 7.999902 -0.000036 -87.405835 -168.995245 -3.621060 -179.999991 0.000005 -0.951003 97.517719 5.506809 0.576933 -0.000001 0.000003 1.535520 64.418731 5.083644 6.591821 25.458878 -7.355616 0.002973 -85.082799 181.112233 -1.895441 -0.000005 -0.000005 -1.268440 -80.286142 -1.725610 1.435341 -0.000007 -0.000003 -1.597781 63.374293 -5.481658 -5.657642 25.456948 7.355612 0.000000 
52.735497 10.972988 57.498405 0.622844 -4.198824 6.740976 1.915368 0.705946 -0.091475 7.835367 1.407065 -0.213171 9.480660 1.404410 -0.230017 31.315560 -7.508950 -3.020933 0.566005 4.629306 -4.408392 -7.596409 -66.312039 -9.502953 -65.040203 -127.396292 -76.060775 -0.000002 0.000000 -0.000018 52.480981 -11.613351 3.317463 -0.000004 0.000003 -3.008281 -5.000164 -7.999591 0.000058 8.351562 62.826600 -9.040762 -69.116856 129.314168 83.402955 0.000000 0.000000 -0.000001 51.343242 15.655164 -5.027888 -0.000006 -0.000015 3.006930 -5.000174 7.999904 -0.000033 -87.271226 -169.013755 -3.598133 -179.999991 0.000006 -0.953995 97.494783 5.514373 0.584539 -0.000002 0.000002 1.538020 64.428403 5.088508 6.581075 25.458876 -7.355618 0.002973 -84.958032 181.104515 -1.881374 -0.000005 -0.000004 -1.270680 -80.307629 -1.743692 1.419750 -0.000007 -0.000002 -1.598230 63.351350 -5.480943 -5.658831 25.456945 7.355612 -0.000000 
52.726597 10.979690 57.493607 0.469176 -4.189291 6.727826 1.903794 0.702101 -0.091011 7.812217 1.399792 -0.211834 9.457509 1.397156 -0.228594 31.223380 -7.412211 -3.029733 0.569894 4.547837 -4.391150 -7.519140 -66.330399 -9.416763 -65.089620 -127.485549 -76.010628 -0.000002 0.000000 -0.000021 52.170665 -11.691089 3.333691 -0.000005 0.000005 -3.008280 -5.000163 -7.999594 0.000055 8.340162 62.929620 -9.010478 -69.143323 129.433779 83.276856 -0.000000 -0.000001 -0.000000 50.987690 15.711079 -5.025532 -0.000006 -0.000020 3.006929 -5.000178 7.999901 -0.000035 -87.138747 -169.032238 -3.575649 -179.999991 0.000005 -0.957000 97.473787 5.521081 0.591112 -0.000002 0.000002 1.540790 64.439010 5.093337 6.570378 25.458881 -7.355619 0.002973 -84.834201 181.096223 -1.868648 -0.000005 -0.000005 -1.272960 -80.329192 -1.761924 1.404361 -0.000008 -0.000002 -1.598570 63.323510 -5.480262 -5.659680 25.456952 7.355613 0.000000 
